<?xml version="1.0" encoding="UTF-8"?>
<!DOCTYPE svg PUBLIC "-//W3C//DTD SVG 1.1//EN" "http://www.w3.org/Graphics/SVG/1.1/DTD/svg11.dtd">
<!-- Creator: CorelDRAW -->
<svg xmlns="http://www.w3.org/2000/svg" xml:space="preserve" width="2048px" height="2048px" style="shape-rendering:geometricPrecision; text-rendering:geometricPrecision; image-rendering:optimizeQuality; fill-rule:evenodd; clip-rule:evenodd"
viewBox="0 0 2048 2048"
 xmlns:xlink="http://www.w3.org/1999/xlink">
 <defs>
  <style type="text/css">
   <![CDATA[
    .fil2 {fill:none}
    .fil12 {fill:#296E2D}
    .fil7 {fill:#2A772E}
    .fil9 {fill:#31621E}
    .fil4 {fill:#33691E}
    .fil11 {fill:#368339}
    .fil6 {fill:#388E3C}
    .fil8 {fill:#3F3F3F}
    .fil5 {fill:#BDBDBD}
    .fil10 {fill:#C9D9B7}
    .fil3 {fill:#DCEDC8}
    .fil1 {fill:#F4511E}
    .fil0 {fill:#FF8A65}
   ]]>
  </style>
   <clipPath id="id0">
    <path d="M1024 0c565.539,0 1024,458.461 1024,1024 0,565.539 -458.461,1024 -1024,1024 -565.539,0 -1024,-458.461 -1024,-1024 0,-565.539 458.461,-1024 1024,-1024z"/>
   </clipPath>
 </defs>
 <g id="Layer_x0020_1">
  <metadata id="CorelCorpID_0Corel-Layer"/>
  <path class="fil0" d="M1024 0c565.539,0 1024,458.461 1024,1024 0,565.539 -458.461,1024 -1024,1024 -565.539,0 -1024,-458.461 -1024,-1024 0,-565.539 458.461,-1024 1024,-1024z"/>
  <g style="clip-path:url(#id0)">
   <g id="_478210552">
    <g>
     <polygon id="_3968250641" class="fil1" points="1447.6,657.699 2583.48,1793.58 2588.71,1799.71 2593.85,1805.92 2598.91,1812.2 2603.87,1818.56 2608.75,1824.99 2613.54,1831.49 2618.23,1838.06 2622.83,1844.7 2627.34,1851.41 2631.75,1858.19 2636.07,1865.04 2640.29,1871.95 2644.41,1878.93 2648.43,1885.97 2652.36,1893.07 2656.18,1900.24 2659.9,1907.47 2663.53,1914.76 2667.04,1922.11 2670.46,1929.52 2673.76,1936.98 1537.88,801.1 1534.57,793.634 1531.16,786.226 1527.64,778.877 1524.02,771.588 1520.3,764.359 1516.48,757.191 1512.55,750.086 1508.53,743.044 1504.41,736.067 1500.19,729.154 1495.87,722.308 1491.46,715.53 1486.95,708.819 1482.35,702.178 1477.65,695.606 1472.87,689.105 1467.99,682.677 1463.03,676.32 1457.97,670.039 1452.83,663.831 "/>
     <polygon id="_396804328" class="fil1" points="1537.88,801.1 2673.76,1936.98 2673.74,1937.03 1537.86,801.148 "/>
     <polygon id="_396797848" class="fil1" points="1537.86,801.148 2673.74,1937.03 2674.56,1938.93 2675.38,1940.84 2676.19,1942.75 2677,1944.67 2677.79,1946.59 2678.59,1948.51 2679.37,1950.43 2680.15,1952.36 2680.92,1954.29 2681.68,1956.23 2682.44,1958.17 2683.18,1960.11 2683.93,1962.06 2684.66,1964.01 2685.39,1965.96 2686.11,1967.92 1550.22,832.034 1549.5,830.077 1548.78,828.123 1548.04,826.173 1547.3,824.227 1546.55,822.284 1545.8,820.346 1545.04,818.41 1544.27,816.478 1543.49,814.55 1542.7,812.625 1541.91,810.703 1541.12,808.786 1540.31,806.872 1539.5,804.961 1538.68,803.052 "/>
     <polygon id="_396823720" class="fil1" points="1550.22,832.034 2686.11,1967.92 2688.12,1973.54 2690.09,1979.2 2691.99,1984.88 2693.83,1990.59 2695.62,1996.33 2697.34,2002.09 2699,2007.87 2700.6,2013.69 2702.14,2019.53 2703.62,2025.39 2705.04,2031.28 2706.4,2037.19 2707.69,2043.12 2708.92,2049.08 2710.09,2055.06 2711.19,2061.06 2712.23,2067.09 2713.2,2073.14 2714.11,2079.2 2714.96,2085.29 2715.74,2091.41 2716.45,2097.54 2717.1,2103.69 2717.68,2109.86 2718.19,2116.05 2718.64,2122.26 2719.02,2128.48 2719.33,2134.73 2719.57,2140.99 2719.74,2147.27 2719.85,2153.57 2719.88,2159.88 2719.84,2166.8 2719.71,2173.7 2719.51,2180.58 2719.22,2187.44 2718.84,2194.27 2718.39,2201.09 2717.85,2207.88 2717.24,2214.64 2716.54,2221.39 2715.77,2228.11 2714.91,2234.81 2713.98,2241.48 2712.97,2248.12 2711.88,2254.75 2710.71,2261.34 2709.47,2267.91 2708.15,2274.45 2706.76,2280.96 2705.29,2287.44 2703.74,2293.9 2702.13,2300.32 2700.43,2306.72 2698.67,2313.09 2696.83,2319.42 2694.92,2325.73 2692.93,2332 2690.88,2338.24 2688.75,2344.45 2686.56,2350.63 2684.29,2356.77 2681.96,2362.88 2679.55,2368.95 1543.67,1233.07 1546.08,1226.99 1548.41,1220.89 1550.68,1214.74 1552.87,1208.57 1555,1202.36 1557.05,1196.12 1559.04,1189.85 1560.95,1183.54 1562.79,1177.2 1564.55,1170.84 1566.24,1164.44 1567.86,1158.02 1569.41,1151.56 1570.88,1145.08 1572.27,1138.56 1573.59,1132.02 1574.83,1125.46 1576,1118.86 1577.09,1112.24 1578.1,1105.6 1579.03,1098.92 1579.89,1092.23 1580.66,1085.51 1581.36,1078.76 1581.97,1071.99 1582.51,1065.2 1582.96,1058.39 1583.34,1051.55 1583.63,1044.7 1583.83,1037.82 1583.96,1030.92 1584,1024 1583.97,1017.69 1583.86,1011.39 1583.69,1005.11 1583.45,998.845 1583.14,992.6 1582.76,986.374 1582.31,980.165 1581.8,973.976 1581.22,967.804 1580.57,961.654 1579.86,955.523 1579.08,949.412 1578.23,943.322 1577.32,937.254 1576.35,931.207 1575.31,925.181 1574.21,919.178 1573.04,913.197 1571.81,907.238 1570.52,901.305 1569.16,895.393 1567.74,889.505 1566.26,883.644 1564.72,877.805 1563.12,871.992 1561.46,866.205 1559.73,860.443 1557.95,854.708 1556.11,848.998 1554.21,843.316 1552.24,837.661 "/>
     <polygon id="_396819136" class="fil1" points="1543.67,1233.07 2679.55,2368.95 2676.25,2376.98 2672.82,2384.94 2669.28,2392.84 2665.61,2400.68 2661.83,2408.45 2657.94,2416.15 2653.93,2423.78 2649.81,2431.34 2645.57,2438.83 2641.22,2446.25 2636.76,2453.6 2632.2,2460.87 2627.53,2468.07 2622.74,2475.19 2617.86,2482.23 2612.87,2489.19 2607.78,2496.08 2602.58,2502.88 2597.28,2509.6 2591.89,2516.24 2586.39,2522.79 2580.8,2529.25 2575.11,2535.63 2569.33,2541.93 2563.45,2548.13 2557.48,2554.24 2551.41,2560.26 2545.26,2566.19 2539.01,2572.02 2532.68,2577.76 2526.26,2583.41 2519.76,2588.96 1383.87,1453.07 1390.38,1447.53 1396.8,1441.88 1403.13,1436.14 1409.38,1430.31 1415.53,1424.38 1421.59,1418.36 1427.57,1412.25 1433.44,1406.04 1439.23,1399.75 1444.92,1393.37 1450.51,1386.91 1456.01,1380.35 1461.4,1373.72 1466.7,1367 1471.89,1360.2 1476.99,1353.31 1481.98,1346.35 1486.86,1339.31 1491.64,1332.19 1496.32,1324.99 1500.88,1317.72 1505.34,1310.37 1509.69,1302.95 1513.92,1295.46 1518.05,1287.9 1522.06,1280.26 1525.95,1272.56 1529.73,1264.79 1533.39,1256.96 1536.94,1249.06 1540.37,1241.09 "/>
     <polygon id="_396821824" class="fil1" points="1383.87,1453.07 2519.76,2588.96 2510.55,2596.52 2501.18,2603.89 2491.65,2611.07 2481.97,2618.04 2472.13,2624.82 2462.15,2631.38 2452.01,2637.74 2441.73,2643.89 2431.32,2649.82 2420.76,2655.53 2410.07,2661.02 2399.25,2666.29 2388.3,2671.33 2377.22,2676.14 2366.02,2680.72 2354.71,2685.06 2343.27,2689.16 2331.72,2693.02 2320.07,2696.64 2308.3,2700 2296.43,2703.12 2284.46,2705.98 2272.39,2708.58 2260.23,2710.92 2247.98,2712.99 2235.63,2714.8 2223.2,2716.34 2210.69,2717.61 2198.1,2718.6 2185.43,2719.31 2172.69,2719.74 2159.88,2719.88 2158.33,2719.88 2156.77,2719.88 2155.22,2719.86 2153.67,2719.85 2152.12,2719.83 2150.57,2719.81 2149.02,2719.78 2147.48,2719.75 2145.93,2719.71 2144.39,2719.67 2142.84,2719.63 2141.3,2719.58 2139.76,2719.53 2138.22,2719.47 2136.68,2719.41 2135.14,2719.35 2133.6,2719.28 2132.07,2719.2 2130.53,2719.13 2129,2719.05 2127.46,2718.96 2125.93,2718.87 2124.4,2718.78 2122.87,2718.68 2121.34,2718.58 2119.81,2718.47 2118.29,2718.36 2116.76,2718.25 2115.24,2718.13 2113.71,2718.01 2112.19,2717.88 2110.67,2717.75 974.791,1581.87 976.312,1582 977.833,1582.12 979.357,1582.25 980.88,1582.37 982.406,1582.48 983.932,1582.59 985.459,1582.69 986.989,1582.8 988.518,1582.89 990.049,1582.99 991.581,1583.08 993.114,1583.16 994.648,1583.24 996.184,1583.32 997.72,1583.4 999.258,1583.46 1000.8,1583.53 1002.34,1583.59 1003.88,1583.65 1005.42,1583.7 1006.96,1583.75 1008.51,1583.79 1010.05,1583.83 1011.6,1583.87 1013.14,1583.9 1014.69,1583.93 1016.24,1583.95 1017.79,1583.97 1019.34,1583.98 1020.89,1583.99 1022.45,1584 1024,1584 1036.81,1583.86 1049.55,1583.43 1062.22,1582.72 1074.81,1581.73 1087.32,1580.46 1099.75,1578.92 1112.1,1577.11 1124.35,1575.04 1136.51,1572.69 1148.58,1570.09 1160.55,1567.23 1172.42,1564.12 1184.18,1560.76 1195.84,1557.14 1207.39,1553.28 1218.82,1549.18 1230.14,1544.84 1241.34,1540.26 1252.42,1535.45 1263.37,1530.41 1274.19,1525.14 1284.88,1519.65 1295.44,1513.94 1305.85,1508 1316.13,1501.86 1326.26,1495.5 1336.25,1488.93 1346.09,1482.16 1355.77,1475.19 1365.3,1468.01 1374.67,1460.64 "/>
     <polygon id="_396800416" class="fil1" points="974.791,1581.87 2110.67,2717.75 2103.16,2717.05 2095.67,2716.24 2088.21,2715.34 2080.78,2714.34 2073.39,2713.24 2066.02,2712.05 2058.69,2710.76 2051.39,2709.38 2044.13,2707.91 2036.9,2706.34 2029.7,2704.67 2022.54,2702.92 2015.42,2701.07 2008.33,2699.14 2001.28,2697.11 1994.27,2694.99 1987.3,2692.79 1980.37,2690.49 1973.48,2688.11 1966.63,2685.64 1959.82,2683.09 1953.05,2680.45 1946.33,2677.72 1939.65,2674.92 1933.01,2672.02 1926.42,2669.05 1919.88,2665.99 1913.38,2662.85 1906.93,2659.63 1900.52,2656.33 1894.17,2652.95 1887.86,2649.49 751.978,1513.61 758.285,1517.07 764.64,1520.45 771.045,1523.75 777.497,1526.97 783.995,1530.11 790.541,1533.17 797.131,1536.14 803.767,1539.03 810.447,1541.84 817.17,1544.57 823.936,1547.21 830.746,1549.76 837.596,1552.23 844.488,1554.61 851.42,1556.9 858.39,1559.11 865.401,1561.22 872.45,1563.25 879.537,1565.19 886.66,1567.04 893.82,1568.79 901.015,1570.45 908.246,1572.02 915.511,1573.5 922.81,1574.88 930.142,1576.17 937.507,1577.36 944.903,1578.46 952.329,1579.46 959.787,1580.36 967.274,1581.16 "/>
     <polygon id="_396806224" class="fil1" points="751.978,1513.61 1887.86,2649.49 1875.8,2642.58 1863.94,2635.39 1852.27,2627.91 1840.8,2620.15 1829.54,2612.12 1818.48,2603.82 1807.64,2595.25 1797.01,2586.43 661.132,1450.54 671.756,1459.37 682.599,1467.93 693.655,1476.23 704.92,1484.27 716.39,1492.03 728.059,1499.51 739.923,1506.7 "/>
    </g>
    <path id="_478222456" class="fil1" d="M1024 463.999c125.56,0 241.468,41.3233 334.866,111.113 8.76261,6.54922 17.3055,13.3748 25.663,20.4142l0.0507874 -0.00944883c65.7556,55.3937 118.582,125.647 153.302,205.583l-0.022441 0.0484252c4.40788,10.148 8.55001,20.4366 12.3638,30.8859 21.8563,59.8748 33.7772,124.528 33.7772,191.966 0,73.9064 -14.3173,144.469 -40.33,209.066 -34.6146,85.9607 -89.941,161.358 -159.797,220.009 -97.3241,81.7134 -222.852,130.926 -359.874,130.926 -16.5815,0 -32.9941,-0.721654 -49.2095,-2.13307 -80.328,-6.99331 -155.801,-30.9461 -222.813,-68.2571 -129.574,-72.1453 -227.529,-194.234 -267.836,-340.242 -13.128,-47.5524 -20.1425,-97.6418 -20.1425,-149.369 0,-40.0784 4.21063,-79.1717 12.2126,-116.865 31.2886,-147.378 120.548,-273.332 242.784,-352.864 74.6764,-48.5882 161.659,-79.8508 255.251,-88.0914 16.3925,-1.44213 32.987,-2.18032 49.754,-2.18032z"/>
   </g>
  </g>
  <path class="fil2" d="M1024 0c565.539,0 1024,458.461 1024,1024 0,565.539 -458.461,1024 -1024,1024 -565.539,0 -1024,-458.461 -1024,-1024 0,-565.539 458.461,-1024 1024,-1024z"/>
  <path class="fil3" d="M1164.42 632.305l-56.4863 170.701 5.66811 5.1c2.27008,2.04213 4.35118,4.28622 6.25749,6.67087l133.974 175.833 1.42795 2.22166c2.06339,3.21378 3.60236,6.70158 5.03032,10.2319l2.91969 7.21772 176.936 1.66417 2.68583 -8.05512c0.561024,-1.68425 1.19646,-3.34252 1.89567,-4.97363l93.1489 -197.817c-34.7209,-79.9359 -87.5469,-150.189 -153.302,-205.583l-190.439 33.313 -0.0897638 -0.574016 -12.1276 2.70827c-2.45197,0.546851 -4.93819,0.895276 -7.44686,1.03819 -0.622441,0.0366142 -1.2437,0.0625985 -1.86732,0.080315l-8.18505 0.222047z"/>
  <path class="fil4" d="M1358.87 575.112c8.76261,6.54922 17.3055,13.3748 25.663,20.4142l-190.388 33.3036 -0.0897638 -0.574016 -12.1276 2.70827c-2.45197,0.546851 -4.93819,0.895276 -7.44686,1.03819 -0.622441,0.0366142 -1.2437,0.0625985 -1.86732,0.080315l-8.18505 0.222047 -56.4863 170.701 5.66811 5.1c2.27008,2.04213 4.35118,4.28622 6.25749,6.67087l133.974 175.833 1.42795 2.22166c2.06339,3.21378 3.60236,6.70158 5.03032,10.2319l2.91969 7.21772 176.936 1.66417 2.68583 -8.05512c0.561024,-1.68425 1.19646,-3.34252 1.89567,-4.97363l93.1264 -197.769c4.40788,10.148 8.55001,20.4366 12.3638,30.8859l-83.4603 177.299 0 0.271654c-1.15039,2.87599 -1.98189,5.87599 -2.33977,8.96221 -0.438189,3.77126 -0.229134,7.57205 0.659056,11.2642 0.4063,1.68307 0.930709,3.33307 1.56614,4.9441 1.08307,2.7437 0.641339,1.55197 1.53543,3.15827l0.869292 1.56142 85.8343 163.153c-3.45355,10.265 -7.21536,20.3882 -11.2382,30.378l-95.3446 -180.814c-1.39016,-2.63622 -3.27756,-5.563 -4.2874,-8.33859 -0.0259843,-0.0708662 -0.0519685,-0.141732 -0.0791339,-0.212599l-2.78032 -7.4126 -178.786 -1.68189 -3.06142 7.14449c-1.13858,2.66103 -2.32677,5.51693 -3.93662,7.93111l-1.33819 2.00669 -133.967 181.323c-2.44843,3.14173 -5.21103,6.02717 -8.31379,8.5382l-6.05552 4.9004 50.55 171.204 8.27717 0.400394c1.76102,0.0850394 3.51733,0.248032 5.263,0.480709l214.036 34.5721c-8.61142,7.22953 -17.4331,14.2158 -26.4768,20.9256l-190.781 -31.2886 -0.996851 0c-3.66378,0 -6.63662,-0.578741 -10.4209,0.105118 -3.73347,0.673229 -7.27205,2.03386 -10.5402,3.95315 -1.42559,0.836221 -2.8252,1.73858 -4.12796,2.75788l-9.25276 7.23308 0.884646 1.11614 -124.521 125.874c-11.002,-0.328347 -21.9248,-0.972048 -32.7626,-1.91575l143.979 -145.123c1.62874,-1.64055 3.28819,-3.40748 5.04449,-4.97126l1.48701 -1.17638c0.380315,-0.301181 0.764174,-0.597638 1.15158,-0.889371l6.48426 -4.8626 -51.0059 -172.752 -7.15512 -1.23071c-0.131102,-0.022441 -0.262205,-0.0448819 -0.393307,-0.0673229 -3.24095,-0.561024 -6.84567,-2.01142 -10.0028,-3.0189l-203.3 -64.904c-3.41457,-1.09016 -7.41733,-2.07992 -10.6075,-3.6815l-6.47363 -3.25158 -144.076 108.631 2.57835 7.91575c0.720473,2.21457 1.31811,4.46693 1.80118,6.7441l2.43425 11.4697 0.127559 -0.0283465 45.0603 202.927c-9.65788,-5.37874 -19.1516,-11.015 -28.4481,-16.9382l-42.7654 -191.245 0 -0.0248032 -0.251575 -1.19173c-0.830316,-3.93425 -2.18504,-7.75631 -4.24843,-11.2193 -1.95591,-3.28465 -4.48229,-6.15237 -7.4504,-8.55946 -1.31102,-1.06299 -2.70473,-2.01969 -4.1504,-2.89016 -2.73189,-1.64528 -1.4752,-0.927166 -3.32126,-1.70315l-1.64882 -0.693308 -165.888 -74.4379c-3.50433,-10.2886 -6.69686,-20.7189 -9.60946,-31.2662l184.808 83.2359c2.7189,1.22362 5.72363,2.41654 8.27127,3.95197 0.248032,0.15 0.494882,0.301181 0.739371,0.457087l6.82678 4.34764 144.464 -108.924 -1.85315 -7.48111c-1.01102,-4.08544 -1.54843,-8.29134 -1.59921,-12.5008l-2.6563 -220.644c-0.0389764,-3.21142 0.133465,-6.42875 0.576378,-9.60946l0.982678 -7.05827 -150.142 -105.488 -6.63662 4.39607c-0.646063,0.427559 -1.30039,0.844489 -1.96181,1.24961l-189.748 107.79c2.32914,-10.9571 4.97244,-21.7973 7.92993,-32.5075l169.133 -96.0686 0.157087 -0.155906c2.97638,-1.82008 5.75079,-3.98622 8.07757,-6.59292 2.51693,-2.81929 4.40788,-6.11103 5.79331,-9.61772 0.617717,-1.56024 1.24725,-3.20433 1.63937,-4.83662 0.634252,-2.6315 0.49252,-1.46575 0.620079,-4.12323l0.0732284 -1.51536 22.3063 -178.66c8.80867,-6.49489 17.8134,-12.7394 27.0059,-18.7205l-23.6634 189.345 -0.569292 -0.0602363 -0.93189 11.974c-0.197244,2.52874 -0.611811,5.0315 -1.20709,7.49646 -0.258662,1.0689 -0.540945,2.13071 -0.850394,3.18662l-2.3563 8.02323 148.015 103.993 6.5693 -4.13504c3.88347,-2.4437 8.10709,-4.31103 12.463,-5.73898l209.293 -68.6103c2.81221,-0.921261 5.76851,-1.95236 8.68229,-2.48386 0.905906,-0.165354 1.81654,-0.303544 2.72953,-0.414567l7.34528 -0.891733 56.7638 -171.54 -6.35434 -5.06811c-1.55551,-1.24016 -3.05197,-2.55473 -4.48937,-3.92953l-156.141 -149.238c11.0575,-0.972048 22.2,-1.64882 33.4323,-1.9689l139.448 133.517c2.93622,2.81221 6.24804,5.22402 9.94489,6.93898 3.45473,1.60158 7.1504,2.52166 10.9406,2.83583 1.69606,0.140551 3.43465,0.229134 5.13544,0.132284 3.04016,-0.172441 1.85433,0.00354331 4.21063,-0.585827l1.46575 -0.367323 180 -31.6099zm-286.018 248.012l1.66536 -0.681497c2.37756,-0.97441 1.35591,-0.71693 4.15394,-1.22244 1.62638,-0.292914 3.27992,-0.413386 4.93229,-0.411024l11.6551 0.00944883 0 3.80551c1.91575,1.47638 3.3,3.17126 5.15079,5.02205l0.648426 0.648426 132.887 174.405c2.28071,2.99528 3.22205,5.77559 4.39252,9.23387 0.729922,2.15669 1.22953,4.38189 1.22953,6.66851 0,2.62559 -0.488977,5.22756 -1.2685,7.72796 -1.13504,3.6378 -2.25945,6.74764 -4.56851,9.87284l-132.783 179.717 -0.686221 0.693308c-2.41418,2.43662 -3.88701,4.51418 -7.11024,6.23859 -2.95276,1.57914 -6.23268,2.19803 -9.55749,2.19803 -3.6815,0 -1.58977,0.217323 -4.94764,-0.369685 -2.77323,-0.484252 -1.83898,-0.311811 -3.56811,-0.934253l-2.13307 -0.768898 -206.277 -65.8548 -2.07284 -0.630709c-3.85158,-1.17284 -7.18938,-3.50079 -9.56457,-6.76772 -3.26339,-4.48583 -4.82717,-10.0146 -4.89449,-15.5268l-2.65512 -220.643c-0.0637796,-5.38347 0.735827,-11.0079 3.86693,-15.5327 2.99764,-4.33347 7.71615,-6.8126 12.6036,-8.41418l208.902 -68.4827z"/>
  <line class="fil5" x1="1169.02" y1="595.916" x2="1169.02" y2= "595.916" />
  <path class="fil3" d="M844.039 1175.9l-144.076 108.631 2.57835 7.91575c0.720473,2.21457 1.31811,4.46693 1.80118,6.7441l2.43425 11.4697 0.127559 -0.0283465 45.0733 202.98c67.0123,37.3111 142.485,61.2638 222.813,68.2571l144.019 -145.163c1.62874,-1.64055 3.28819,-3.40748 5.04449,-4.97126l1.48701 -1.17638 1.15158 -0.889371 6.48426 -4.8626 -51.0059 -172.752 -7.15512 -1.23071 -0.393307 -0.0673229c-3.24095,-0.561024 -6.84567,-2.01142 -10.0028,-3.0189l-203.3 -64.904c-3.41457,-1.09016 -7.41733,-2.07992 -10.6075,-3.6815l-6.47363 -3.25158z"/>
  <path class="fil3" d="M718.995 554.271l-23.6681 189.388 -0.569292 -0.0602363 -0.93189 11.974c-0.197244,2.52874 -0.611811,5.0315 -1.20709,7.49646 -0.258662,1.0689 -0.540945,2.13071 -0.850394,3.18662l-2.3563 8.02323 148.015 103.993 6.5693 -4.13504c3.88347,-2.4437 8.10709,-4.31103 12.463,-5.73898l209.293 -68.6103c2.81221,-0.921261 5.76851,-1.95236 8.68229,-2.48386 0.905906,-0.165354 1.81654,-0.303544 2.72953,-0.414567l7.34528 -0.891733 56.7638 -171.54 -6.35434 -5.06811c-1.55551,-1.24016 -3.05197,-2.55473 -4.48937,-3.92953l-156.183 -149.28c-93.5918,8.24056 -180.574,39.5032 -255.251,88.0914z"/>
  <path class="fil3" d="M1120.07 1232.97c-2.44843,3.14173 -5.21103,6.02717 -8.31379,8.5382l-6.05552 4.9004 50.55 171.204 8.27717 0.400394c1.76102,0.0850394 3.51733,0.248032 5.263,0.480709l214.083 34.5792c69.8564,-58.6512 125.183,-134.048 159.797,-220.009l-95.3658 -180.854c-1.39016,-2.63622 -3.27756,-5.563 -4.2874,-8.33859l-0.0791339 -0.212599 -2.78032 -7.4126 -178.786 -1.68189 -3.06142 7.14449c-1.13858,2.66103 -2.32677,5.51693 -3.93662,7.93111l-1.33819 2.00669 -133.967 181.323z"/>
  <path class="fil6" d="M847.476 915.553l2.65512 220.643c0.0673229,5.51221 1.6311,11.041 4.89449,15.5268 2.3752,3.26693 5.713,5.59489 9.56457,6.76772l2.07284 0.630709 206.277 65.8548 2.13307 0.768898c1.72914,0.622441 0.794883,0.45 3.56811,0.934253 3.35788,0.587008 1.26614,0.369685 4.94764,0.369685 3.32481,0 6.60473,-0.618898 9.55749,-2.19803 3.22323,-1.72441 4.69607,-3.80197 7.11024,-6.23859l0.686221 -0.693308 132.783 -179.717c2.30906,-3.1252 3.43347,-6.23504 4.56851,-9.87284 0.779528,-2.5004 1.2685,-5.10237 1.2685,-7.72796 0,-2.28662 -0.499607,-4.51181 -1.22953,-6.66851 -1.17047,-3.45827 -2.11181,-6.23859 -4.39252,-9.23387l-132.887 -174.405 -0.648426 -0.648426c-1.85079,-1.85079 -3.23504,-3.54567 -5.15079,-5.02205l0 -3.80551 -11.6551 -0.00944883c-1.65236,-0.00236221 -3.30591,0.11811 -4.93229,0.411024 -2.79803,0.505512 -1.77638,0.248032 -4.15394,1.22244l-1.66536 0.681497 -208.902 68.4827c-4.88741,1.60158 -9.60591,4.08071 -12.6036,8.41418 -3.1311,4.52481 -3.93071,10.1492 -3.86693,15.5327z"/>
  <path class="fil7" d="M1007.72 464.252l139.448 133.517c2.93622,2.81221 6.24804,5.22402 9.94489,6.93898 3.45473,1.60158 7.1504,2.52166 10.9406,2.83583 1.69606,0.140551 3.43465,0.229134 5.13544,0.132284 3.04016,-0.172441 1.85433,0.00354331 4.21063,-0.585827l1.46575 -0.367323 180 -31.6099c-93.3981,-69.7902 -209.307,-111.113 -334.866,-111.113 -16.7669,0 -33.3614,0.73819 -49.754,2.18032l0.0425197 0.0413386c11.0575,-0.972048 22.2,-1.64882 33.4323,-1.9689z"/>
  <path class="fil7" d="M1550.22 832.034l-83.4603 177.299 0 0.271654c-1.15039,2.87599 -1.98189,5.87599 -2.33977,8.96221 -0.438189,3.77126 -0.229134,7.57205 0.659056,11.2642 0.4063,1.68307 0.930709,3.33307 1.56614,4.9441 1.08307,2.7437 0.641339,1.55197 1.53543,3.15827l0.869292 1.56142 85.8343 163.153c-3.45355,10.265 -7.21536,20.3882 -11.2382,30.378l0.0212599 0.0401575c26.0126,-64.5969 40.33,-135.16 40.33,-209.066 0,-67.4375 -11.9209,-132.091 -33.7772,-191.966z"/>
  <path class="fil7" d="M1132.11 1457.87l-124.521 125.874c-11.002,-0.328347 -21.9248,-0.972048 -32.7626,-1.91575l-0.0401575 0.0401575c16.2154,1.41142 32.628,2.13307 49.2095,2.13307 137.022,0 262.55,-49.213 359.874,-130.926l-0.0472441 -0.00708662c-8.61142,7.22953 -17.4331,14.2158 -26.4768,20.9256l-190.781 -31.2886 -0.996851 0c-3.66378,0 -6.63662,-0.578741 -10.4209,0.105118 -3.73347,0.673229 -7.27205,2.03386 -10.5402,3.95315 -1.42559,0.836221 -2.8252,1.73858 -4.12796,2.75788l-9.25276 7.23308 0.884646 1.11614z"/>
  <path class="fil3" d="M476.211 907.135c-8.00197,37.6937 -12.2126,76.7871 -12.2126,116.865 0,51.7276 7.01457,101.817 20.1425,149.369l184.85 83.2548c2.7189,1.22362 5.72363,2.41654 8.27127,3.95197l0.739371 0.457087 6.82678 4.34764 144.464 -108.924 -1.85315 -7.48111c-1.01102,-4.08544 -1.54843,-8.29134 -1.59921,-12.5008l-2.6563 -220.644c-0.0389764,-3.21142 0.133465,-6.42875 0.576378,-9.60946l0.982678 -7.05827 -150.142 -105.488 -6.63662 4.39607c-0.646063,0.427559 -1.30039,0.844489 -1.96181,1.24961l-189.791 107.813z"/>
  <path class="fil7" d="M484.141 1173.37c40.3075,146.008 138.262,268.096 267.836,340.242l-0.0129921 -0.0531496c-9.65788,-5.37874 -19.1516,-11.015 -28.4481,-16.9382l-42.7654 -191.245 0 -0.0248032 -0.251575 -1.19173c-0.830316,-3.93425 -2.18504,-7.75631 -4.24843,-11.2193 -1.95591,-3.28465 -4.48229,-6.15237 -7.4504,-8.55946 -1.31102,-1.06299 -2.70473,-2.01969 -4.1504,-2.89016 -2.73189,-1.64528 -1.4752,-0.927166 -3.32126,-1.70315l-1.64882 -0.693308 -165.888 -74.4379c-3.50433,-10.2886 -6.69686,-20.7189 -9.60946,-31.2662l-0.0413386 -0.0188977z"/>
  <path class="fil7" d="M718.995 554.271c-122.236,79.532 -211.495,205.486 -242.784,352.864l0.0437008 -0.0236221c2.32914,-10.9571 4.97244,-21.7973 7.92993,-32.5075l169.133 -96.0686 0.157087 -0.155906c2.97638,-1.82008 5.75079,-3.98622 8.07757,-6.59292 2.51693,-2.81929 4.40788,-6.11103 5.79331,-9.61772 0.617717,-1.56024 1.24725,-3.20433 1.63937,-4.83662 0.634252,-2.6315 0.49252,-1.46575 0.620079,-4.12323l0.0732284 -1.51536 22.3063 -178.66c8.80867,-6.49489 17.8134,-12.7394 27.0059,-18.7205l0.00472441 -0.0425197z"/>
  <path class="fil8" d="M1024 463.999l0.0011811 0 0 1120 -0.0011811 0c-309.279,0 -560.001,-250.722 -560.001,-560.001 0,-309.279 250.722,-560.001 560.001,-560.001z"/>
  <path class="fil9" d="M1024 1567.16l-16.4079 16.5862c-11.002,-0.328347 -21.9248,-0.972048 -32.7626,-1.91575l49.1705 -49.5615 0 34.891zm0 -332.326l-162.881 -51.9993c-3.41457,-1.09016 -7.41733,-2.07992 -10.6075,-3.6815l-6.47363 -3.25158 -144.076 108.631 2.57835 7.91575c0.720473,2.21457 1.31811,4.46693 1.80118,6.7441l2.43425 11.4697 0.127559 -0.0283465 45.0603 202.927c-9.65788,-5.37874 -19.1516,-11.015 -28.4481,-16.9382l-42.7654 -191.245 0 -0.0248032 -0.251575 -1.19173c-0.830316,-3.93425 -2.18504,-7.75631 -4.24843,-11.2193 -1.95591,-3.28465 -4.48229,-6.15237 -7.4504,-8.55946 -1.31102,-1.06299 -2.70473,-2.01969 -4.1504,-2.89016 -2.73189,-1.64528 -1.4752,-0.927166 -3.32126,-1.70315l-1.64882 -0.693308 -165.888 -74.4379c-3.50433,-10.2886 -6.69686,-20.7189 -9.60946,-31.2662l184.808 83.2359c2.7189,1.22362 5.72363,2.41654 8.27127,3.95197 0.248032,0.15 0.494882,0.301181 0.739371,0.457087l6.82678 4.34764 144.464 -108.924 -1.85315 -7.48111c-1.01102,-4.08544 -1.54843,-8.29134 -1.59921,-12.5008l-2.6563 -220.644c-0.0389764,-3.21142 0.133465,-6.42875 0.576378,-9.60946l0.982678 -7.05827 -150.142 -105.488 -6.63662 4.39607c-0.646063,0.427559 -1.30039,0.844489 -1.96181,1.24961l-189.748 107.79c2.32914,-10.9571 4.97244,-21.7973 7.92993,-32.5075l169.133 -96.0686 0.157087 -0.155906c2.97638,-1.82008 5.75079,-3.98622 8.07757,-6.59292 2.51693,-2.81929 4.40788,-6.11103 5.79331,-9.61772 0.617717,-1.56024 1.24725,-3.20433 1.63937,-4.83662 0.634252,-2.6315 0.49252,-1.46575 0.620079,-4.12323l0.0732284 -1.51536 22.3063 -178.66c8.80867,-6.49489 17.8134,-12.7394 27.0059,-18.7205l-23.6634 189.345 -0.569292 -0.0602363 -0.93189 11.974c-0.197244,2.52874 -0.611811,5.0315 -1.20709,7.49646 -0.258662,1.0689 -0.540945,2.13071 -0.850394,3.18662l-2.3563 8.02323 148.015 103.993 6.5693 -4.13504c3.88347,-2.4437 8.10709,-4.31103 12.463,-5.73898l167.542 -54.9237 0 25.6642 -160.055 52.4693c-4.88741,1.60158 -9.60591,4.08071 -12.6036,8.41418 -3.1311,4.52481 -3.93071,10.1492 -3.86693,15.5327l2.65512 220.643c0.0673229,5.51221 1.6311,11.041 4.89449,15.5268 2.3752,3.26693 5.713,5.59489 9.56457,6.76772l2.07284 0.630709 157.338 50.23 0 25.4799zm0 -721.095l-49.7126 -47.5158c11.0575,-0.972048 22.2,-1.64882 33.4323,-1.9689l16.2803 15.5882 0 33.8965z"/>
  <path class="fil10" d="M844.039 1175.9l-144.076 108.631 2.57835 7.91575c0.720473,2.21457 1.31811,4.46693 1.80118,6.7441l2.43425 11.4697 0.127559 -0.0283465 45.0733 202.98c67.0123,37.3111 142.485,61.2638 222.813,68.2571l49.2107 -49.6016 0 -297.435 -162.881 -51.9993c-3.41457,-1.09016 -7.41733,-2.07992 -10.6075,-3.6815l-6.47363 -3.25158z"/>
  <path class="fil10" d="M476.211 907.135c-8.00197,37.6937 -12.2126,76.7871 -12.2126,116.865 0,51.7276 7.01457,101.817 20.1425,149.369l184.85 83.2548c2.7189,1.22362 5.72363,2.41654 8.27127,3.95197l0.739371 0.457087 6.82678 4.34764 144.464 -108.924 -1.85315 -7.48111c-1.01102,-4.08544 -1.54843,-8.29134 -1.59921,-12.5008l-2.6563 -220.644c-0.0389764,-3.21142 0.133465,-6.42875 0.576378,-9.60946l0.982678 -7.05827 -150.142 -105.488 -6.63662 4.39607c-0.646063,0.427559 -1.30039,0.844489 -1.96181,1.24961l-189.791 107.813z"/>
  <path class="fil10" d="M718.995 554.271l-23.6681 189.388 -0.569292 -0.0602363 -0.93189 11.974c-0.197244,2.52874 -0.611811,5.0315 -1.20709,7.49646 -0.258662,1.0689 -0.540945,2.13071 -0.850394,3.18662l-2.3563 8.02323 148.015 103.993 6.5693 -4.13504c3.88347,-2.4437 8.10709,-4.31103 12.463,-5.73898l167.542 -54.9237 0 -299.737 -49.7552 -47.5571c-93.5918,8.24056 -180.574,39.5032 -255.251,88.0914z"/>
  <path class="fil11" d="M847.476 915.553l2.65512 220.643c0.0673229,5.51221 1.6311,11.041 4.89449,15.5268 2.3752,3.26693 5.713,5.59489 9.56457,6.76772l2.07284 0.630709 157.338 50.23 0 -370.214 -160.055 52.4693c-4.88741,1.60158 -9.60591,4.08071 -12.6036,8.41418 -3.1311,4.52481 -3.93071,10.1492 -3.86693,15.5327z"/>
  <path class="fil12" d="M484.141 1173.37c40.3075,146.008 138.262,268.096 267.836,340.242l-0.0129921 -0.0531496c-9.65788,-5.37874 -19.1516,-11.015 -28.4481,-16.9382l-42.7654 -191.245 0 -0.0248032 -0.251575 -1.19173c-0.830316,-3.93425 -2.18504,-7.75631 -4.24843,-11.2193 -1.95591,-3.28465 -4.48229,-6.15237 -7.4504,-8.55946 -1.31102,-1.06299 -2.70473,-2.01969 -4.1504,-2.89016 -2.73189,-1.64528 -1.4752,-0.927166 -3.32126,-1.70315l-1.64882 -0.693308 -165.888 -74.4379c-3.50433,-10.2886 -6.69686,-20.7189 -9.60946,-31.2662l-0.0413386 -0.0188977z"/>
  <path class="fil12" d="M718.995 554.271c-122.236,79.532 -211.495,205.486 -242.784,352.864l0.0437008 -0.0236221c2.32914,-10.9571 4.97244,-21.7973 7.92993,-32.5075l169.133 -96.0686 0.157087 -0.155906c2.97638,-1.82008 5.75079,-3.98622 8.07757,-6.59292 2.51693,-2.81929 4.40788,-6.11103 5.79331,-9.61772 0.617717,-1.56024 1.24725,-3.20433 1.63937,-4.83662 0.634252,-2.6315 0.49252,-1.46575 0.620079,-4.12323l0.0732284 -1.51536 22.3063 -178.66c8.80867,-6.49489 17.8134,-12.7394 27.0059,-18.7205l0.00472441 -0.0425197z"/>
  <path class="fil12" d="M1007.72 464.252l16.2803 15.5882 0 -15.841 -0.0011811 0c-16.7669,0 -33.3614,0.73819 -49.754,2.18032l0.0425197 0.0413386c11.0575,-0.972048 22.2,-1.64882 33.4323,-1.9689z"/>
  <path class="fil12" d="M1024 1567.16l-16.4079 16.5862c-11.002,-0.328347 -21.9248,-0.972048 -32.7626,-1.91575l-0.0401575 0.0401575c16.2154,1.41142 32.628,2.13307 49.2095,2.13307l0.0011811 0 0 -16.8437z"/>
 </g>
</svg>
