<?xml version="1.0" encoding="UTF-8"?>
<!DOCTYPE svg PUBLIC "-//W3C//DTD SVG 1.1//EN" "http://www.w3.org/Graphics/SVG/1.1/DTD/svg11.dtd">
<!-- Creator: CorelDRAW -->
<svg xmlns="http://www.w3.org/2000/svg" xml:space="preserve" width="6.82666in" height="6.82666in" style="shape-rendering:geometricPrecision; text-rendering:geometricPrecision; image-rendering:optimizeQuality; fill-rule:evenodd; clip-rule:evenodd"
viewBox="0 0 6.82666 6.82666"
 xmlns:xlink="http://www.w3.org/1999/xlink">
 <defs>
  <style type="text/css">
   <![CDATA[
    .fil3 {fill:none}
    .fil1 {fill:#6F6F6F;fill-rule:nonzero}
    .fil0 {fill:#7D7D7D;fill-rule:nonzero}
    .fil2 {fill:#F7F7F7;fill-rule:nonzero}
   ]]>
  </style>
 </defs>
 <g id="Layer_x0020_1">
  <metadata id="CorelCorpID_0Corel-Layer"/>
  <g id="_274758816">
   <polygon id="_274761216" class="fil0" points="0.955736,1.67254 5.87093,1.67254 5.97333,1.67254 5.97333,1.77494 5.97333,5.05172 5.97333,5.15413 5.87093,5.15413 0.955736,5.15413 0.853331,5.15413 0.853331,5.05172 0.853331,1.77494 0.853331,1.67254 "/>
   <path id="_274761384" class="fil1" d="M0.955736 1.67254l0.167071 0 0 3.48159 -0.167071 0 -0.102406 0 0 -0.102402 0 -3.27679 0 -0.102402 0.102406 0zm0.436543 0l0.269472 0 0 3.48159 -0.269472 0 0 -3.48159zm0.538949 0l0.269472 0 0 3.48159 -0.269472 0 0 -3.48159zm0.538945 0l0.269476 0 0 3.48159 -0.269476 0 0 -3.48159zm0.538949 0l0.269472 0 0 3.48159 -0.269472 0 0 -3.48159zm0.538949 0l0.269472 0 0 3.48159 -0.269472 0 0 -3.48159zm0.538945 0l0.269476 0 0 3.48159 -0.269476 0 0 -3.48159zm0.538949 0l0.269472 0 0 3.48159 -0.269472 0 0 -3.48159zm0.538949 0l0.269472 0 0 3.48159 -0.269472 0 0 -3.48159zm0.538945 0l0.167071 0 0.102402 0 0 0.102402 0 3.27679 0 0.102402 -0.102402 0 -0.167071 0 0 -3.48159z"/>
   <path id="_274761672" class="fil2" d="M1.02 1.8392l0 3.14826 4.78667 0 0 -3.14826 -4.78667 0zm-0.0666693 3.18159l0 -3.21493 0 -0.0333346 0.0333346 0 4.85334 0 0.0333346 0 0 0.0333346 0 3.21493 0 0.0333346 -0.0333346 0 -4.85334 0 -0.0333346 0 0 -0.0333346z"/>
   <path id="_274761600" class="fil2" d="M3.41333 2.61199c0.108319,0 0.211791,0.0216142 0.306315,0.0607677 0.0982677,0.0407087 0.186559,0.100213 0.260299,0.173957 0.0737441,0.0737402 0.133248,0.162031 0.173957,0.260299 0.0391535,0.0945236 0.0607677,0.197996 0.0607677,0.306315 0,0.108319 -0.0216142,0.211791 -0.0607677,0.306315 -0.0407087,0.0982677 -0.100213,0.186559 -0.173957,0.260299 -0.0737402,0.0737441 -0.162031,0.133248 -0.260299,0.173957 -0.0945236,0.0391535 -0.197996,0.0607677 -0.306315,0.0607677 -0.108319,0 -0.211791,-0.0216142 -0.306315,-0.0607677 -0.0982677,-0.0407087 -0.186559,-0.100213 -0.260299,-0.173957 -0.0737441,-0.0737402 -0.133248,-0.162031 -0.173957,-0.260299 -0.0391535,-0.0945236 -0.0607677,-0.197996 -0.0607677,-0.306315 0,-0.108319 0.0216142,-0.211791 0.0607677,-0.306315 0.0407087,-0.0982677 0.100213,-0.186559 0.173957,-0.260299 0.0737402,-0.0737441 0.162031,-0.133248 0.260299,-0.173957 0.0945236,-0.0391535 0.197996,-0.0607677 0.306315,-0.0607677zm0.281055 0.122224c-0.0864134,-0.0357953 -0.181339,-0.0555551 -0.281055,-0.0555551 -0.0997165,0 -0.194642,0.0197598 -0.281055,0.0555551 -0.0896772,0.0371496 -0.170551,0.0917559 -0.238425,0.159634 -0.067878,0.067874 -0.122484,0.148748 -0.159634,0.238425 -0.0357953,0.0864134 -0.0555551,0.181339 -0.0555551,0.281055 0,0.0997165 0.0197598,0.194642 0.0555551,0.281055 0.0371496,0.0896772 0.0917559,0.170551 0.159634,0.238425 0.067874,0.067878 0.148748,0.122484 0.238425,0.159634 0.0864134,0.0357953 0.181339,0.0555551 0.281055,0.0555551 0.0997165,0 0.194642,-0.0197598 0.281055,-0.0555551 0.0896772,-0.0371496 0.170551,-0.0917559 0.238425,-0.159634 0.067878,-0.067874 0.122484,-0.148748 0.159634,-0.238425 0.0357953,-0.0864134 0.0555551,-0.181339 0.0555551,-0.281055 0,-0.0997165 -0.0197598,-0.194642 -0.0555551,-0.281055 -0.0371496,-0.0896772 -0.0917559,-0.170551 -0.159634,-0.238425 -0.067874,-0.067878 -0.148748,-0.122484 -0.238425,-0.159634z"/>
   <line id="_274760400" class="fil3" x1="3.41333" y1="1.67222" x2="3.41333" y2= "2.68058" />
   <polygon id="_274760472" class="fil2" points="3.44667,1.67222 3.44667,2.68058 3.38,2.68058 3.38,1.67222 "/>
   <line id="_274760928" class="fil3" x1="3.41333" y1="4.14576" x2="3.41333" y2= "5.15413" />
   <polygon id="_274760376" class="fil2" points="3.44667,4.14576 3.44667,5.15413 3.38,5.15413 3.38,4.14576 "/>
   <path id="_274760424" class="fil2" d="M1.08907 2.356l0.921598 0 0.102402 0 0.0333346 0 0 0.0333346 0 0.102402 0 0.279063c0.0424764,0.0316457 0.0816496,0.067311 0.116913,0.106394 0.0389567,0.0431772 0.0733189,0.0907559 0.102291,0.141925 0.0336181,0.059378 0.0599016,0.123291 0.0776102,0.190484 0.0172244,0.0653465 0.0263976,0.133646 0.0263976,0.203732 0,0.0700866 -0.00917323,0.138386 -0.0263976,0.203732 -0.0177087,0.0671929 -0.0439921,0.131106 -0.0776102,0.190484 -0.0289724,0.0511693 -0.0633346,0.098748 -0.102291,0.141925 -0.0352638,0.0390827 -0.074437,0.074748 -0.116913,0.106394l0 0.279059 0 0.102402 0 0.0333346 -0.0333346 0 -0.102402 0 -0.921598 0 -0.102406 0 -0.0333346 0 0 -0.0333346 0 -0.102402 0 -1.84319 0 -0.102402 0 -0.0333346 0.0333346 0 0.102406 0zm0.921598 0.0666693l-0.921598 0 -0.0690709 0 0 0.0690669 0 1.84319 0 0.0690669 0.0690709 0 0.921598 0 0.0690669 0 0 -0.0690669 0 -0.295898 0 -0.0170709 0.014063 -0.0100118c0.043748,-0.0311535 0.0840157,-0.0670669 0.120039,-0.107 0.0359409,-0.0398386 0.0675079,-0.0834921 0.0939606,-0.130209 0.0307638,-0.0543386 0.0548425,-0.112925 0.0710984,-0.174602 0.0156929,-0.0595394 0.0240512,-0.12215 0.0240512,-0.186803 0,-0.0646535 -0.00835827,-0.127264 -0.0240512,-0.186803 -0.0162559,-0.0616772 -0.0403346,-0.120264 -0.0710984,-0.174602 -0.0264528,-0.0467165 -0.0580197,-0.0903701 -0.0939606,-0.130209 -0.0360236,-0.0399331 -0.0762913,-0.0758465 -0.120039,-0.107l-0.014063 -0.0100118 0 -0.0170709 0 -0.295902 0 -0.0690669 -0.0690669 0z"/>
   <polygon id="_274760712" class="fil2" points="2.14172,2.6349 2.14172,4.19176 2.07506,4.19176 2.07506,2.6349 "/>
   <path id="_274760760" class="fil2" d="M0.986661 2.85473l0.533602 0 0.0333346 0 0 0.0333346 0 1.05053 0 0.0333346 -0.0333346 0 -0.533602 0 -0.0333346 0 0 -0.0333346 0 -1.05053 0 -0.0333346 0.0333346 0zm0.500268 0.0666693l-0.466933 0 0 0.983862 0.466933 0 0 -0.983862z"/>
   <path id="_274760736" class="fil2" d="M5.73759 2.42267l-0.921598 0 -0.0690669 0 0 0.0690669 0 0.295902 0 0.0170709 -0.014063 0.0100118c-0.043748,0.0311535 -0.0840157,0.0670669 -0.120039,0.107 -0.0359409,0.0398386 -0.0675079,0.0834921 -0.0939606,0.130209 -0.0307638,0.0543386 -0.0548425,0.112925 -0.0710984,0.174602 -0.0156929,0.0595394 -0.0240512,0.12215 -0.0240512,0.186803 0,0.0646535 0.00835827,0.127264 0.0240512,0.186803 0.0162559,0.0616772 0.0403346,0.120264 0.0710984,0.174602 0.0264528,0.0467165 0.0580197,0.0903701 0.0939606,0.130209 0.0360236,0.0399331 0.0762913,0.0758465 0.120039,0.107l0.014063 0.0100118 0 0.0170709 0 0.295898 0 0.0690669 0.0690669 0 0.921598 0 0.0690709 0 0 -0.0690669 0 -1.84319 0 -0.0690669 -0.0690709 0zm-0.921598 -0.0666693l0.921598 0 0.102406 0 0.0333346 0 0 0.0333346 0 0.102402 0 1.84319 0 0.102402 0 0.0333346 -0.0333346 0 -0.102406 0 -0.921598 0 -0.102402 0 -0.0333346 0 0 -0.0333346 0 -0.102402 0 -0.279059c-0.0424764,-0.0316457 -0.0816496,-0.067311 -0.116913,-0.106394 -0.0389567,-0.0431772 -0.0733189,-0.0907559 -0.102291,-0.141925 -0.0336181,-0.059378 -0.0599016,-0.123291 -0.0776102,-0.190484 -0.0172244,-0.0653465 -0.0263976,-0.133646 -0.0263976,-0.203732 0,-0.0700866 0.00917323,-0.138386 0.0263976,-0.203732 0.0177087,-0.0671929 0.0439921,-0.131106 0.0776102,-0.190484 0.0289724,-0.0511693 0.0633346,-0.098748 0.102291,-0.141925 0.0352638,-0.0390827 0.074437,-0.074748 0.116913,-0.106394l0 -0.279063 0 -0.102402 0 -0.0333346 0.0333346 0 0.102402 0z"/>
   <polygon id="_274760808" class="fil2" points="4.75161,2.6349 4.75161,4.19176 4.68494,4.19176 4.68494,2.6349 "/>
   <path id="_274759944" class="fil2" d="M5.80667 2.9214l-0.466933 0 0 0.983862 0.466933 0 0 -0.983862zm-0.500268 -0.0666693l0.533602 0 0.0333346 0 0 0.0333346 0 1.05053 0 0.0333346 -0.0333346 0 -0.533602 0 -0.0333346 0 0 -0.0333346 0 -1.05053 0 -0.0333346 0.0333346 0z"/>
   <path id="_274759584" class="fil3" d="M0.997433 4.78346c0.0235394,-0.0106063 0.049063,-0.0160906 0.0748819,-0.0160906 0.100677,0 0.182291,0.0816142 0.182291,0.182291 0,0.030378 -0.00759055,0.0602717 -0.0220827,0.0869685"/>
   <path id="_274760280" class="fil2" d="M0.98376 4.75312c0.0139055,-0.00626772 0.0284528,-0.0110354 0.0433583,-0.0142362 0.0149646,-0.0032126 0.0301181,-0.00485039 0.0451969,-0.00485039 0.0595354,0 0.113445,0.0241417 0.152465,0.0631614 0.0390197,0.0390197 0.0631614,0.0929291 0.0631614,0.152465 0,0.0178268 -0.00225197,0.0356102 -0.00664961,0.052937l0 0.000133858c-0.00431496,0.0169961 -0.0108858,0.0337244 -0.0196024,0.0497835l-0.0583307 -0.0317717c0.00577165,-0.0106339 0.010252,-0.0222087 0.0133504,-0.0344213l3.14961e-005 7.87402e-006c0.00299606,-0.0118504 0.0045315,-0.0241654 0.0045315,-0.0366693 0,-0.0411378 -0.0166772,-0.0783819 -0.043626,-0.105331 -0.0269488,-0.0269488 -0.0641929,-0.043626 -0.105331,-0.043626 -0.0107362,0 -0.0212638,0.00111024 -0.0313937,0.00328346 -0.010185,0.00218898 -0.0201929,0.00547638 -0.029815,0.00981102l-0.0273465 -0.0606772z"/>
   <path id="_274760256" class="fil3" d="M5.84 4.78346c-0.0235394,-0.0106063 -0.049063,-0.0160906 -0.0748819,-0.0160906 -0.100677,0 -0.182291,0.0816142 -0.182291,0.182291 0,0.030378 0.00759055,0.0602717 0.0220827,0.0869685"/>
   <path id="_274760232" class="fil2" d="M5.82633 4.8138c-0.00962205,-0.00433465 -0.0196299,-0.00762205 -0.029815,-0.00981102 -0.0101299,-0.00217323 -0.0206575,-0.00328346 -0.0313937,-0.00328346 -0.0411378,0 -0.0783819,0.0166772 -0.105331,0.043626 -0.0269488,0.0269488 -0.043626,0.0641929 -0.043626,0.105331 0,0.0125039 0.00153543,0.0248189 0.0045315,0.0366693l3.14961e-005 -7.87402e-006c0.00309843,0.0122126 0.00757874,0.0237874 0.0133504,0.0344213l-0.0583307 0.0317717c-0.00871654,-0.0160591 -0.0152874,-0.0327874 -0.0196024,-0.0497835l0 -0.000133858c-0.00439764,-0.0173268 -0.00664961,-0.0351102 -0.00664961,-0.052937 0,-0.0595354 0.0241417,-0.113445 0.0631614,-0.152465 0.0390197,-0.0390197 0.0929291,-0.0631614 0.152465,-0.0631614 0.0150787,0 0.0302323,0.0016378 0.0451969,0.00485039 0.0149055,0.00320079 0.0294528,0.0079685 0.0433583,0.0142362l-0.0273465 0.0606772z"/>
   <path id="_274760112" class="fil3" d="M0.997433 2.05904c0.0235394,0.0106063 0.049063,0.0160906 0.0748819,0.0160906 0.100677,0 0.182291,-0.0816142 0.182291,-0.182291 0,-0.030378 -0.00759055,-0.0602717 -0.0220827,-0.0869685"/>
   <path id="_274760088" class="fil2" d="M1.01111 2.0287c0.00962205,0.00433465 0.0196299,0.00762205 0.029815,0.00981102 0.0101299,0.00217323 0.0206575,0.00328346 0.0313937,0.00328346 0.0411378,0 0.0783819,-0.0166772 0.105331,-0.043626 0.0269488,-0.0269488 0.043626,-0.0641929 0.043626,-0.105331 0,-0.0125039 -0.00153543,-0.0248189 -0.0045315,-0.0366693l-3.14961e-005 7.87402e-006c-0.00309843,-0.0122126 -0.00757874,-0.0237874 -0.0133504,-0.0344213l0.0583307 -0.0317717c0.00871654,0.0160591 0.0152874,0.0327874 0.0196024,0.0497835l0 0.000133858c0.00439764,0.0173268 0.00664961,0.0351102 0.00664961,0.052937 0,0.0595354 -0.0241417,0.113445 -0.0631614,0.152465 -0.0390197,0.0390197 -0.0929291,0.0631614 -0.152465,0.0631614 -0.0150787,0 -0.0302323,-0.0016378 -0.0451969,-0.00485039 -0.0149055,-0.00320079 -0.0294528,-0.0079685 -0.0433583,-0.0142362l0.0273465 -0.0606772z"/>
   <path id="_274760184" class="fil3" d="M5.84 2.05904c-0.0235394,0.0106063 -0.049063,0.0160906 -0.0748819,0.0160906 -0.100677,0 -0.182291,-0.0816142 -0.182291,-0.182291 0,-0.030378 0.00759055,-0.0602717 0.0220827,-0.0869685"/>
   <path id="_274758888" class="fil2" d="M5.85367 2.08937c-0.0139055,0.00626772 -0.0284528,0.0110354 -0.0433583,0.0142362 -0.0149646,0.0032126 -0.0301181,0.00485039 -0.0451969,0.00485039 -0.0595354,0 -0.113445,-0.0241417 -0.152465,-0.0631614 -0.0390197,-0.0390197 -0.0631614,-0.0929291 -0.0631614,-0.152465 0,-0.0178268 0.00225197,-0.0356102 0.00664961,-0.052937l0 -0.000133858c0.00431496,-0.0169961 0.0108858,-0.0337244 0.0196024,-0.0497835l0.0583307 0.0317717c-0.00577165,0.0106339 -0.010252,0.0222087 -0.0133504,0.0344213l-3.14961e-005 -7.87402e-006c-0.00299606,0.0118504 -0.0045315,0.0241654 -0.0045315,0.0366693 0,0.0411378 0.0166772,0.0783819 0.043626,0.105331 0.0269488,0.0269488 0.0641929,0.043626 0.105331,0.043626 0.0107362,0 0.0212638,-0.00111024 0.0313937,-0.00328346 0.010185,-0.00218898 0.0201929,-0.00547638 0.029815,-0.00981102l0.0273465 0.0606772z"/>
  </g>
  <rect class="fil3" width="6.82666" height="6.82666"/>
 </g>
</svg>
