<?xml version="1.0" encoding="UTF-8"?>
<!DOCTYPE svg PUBLIC "-//W3C//DTD SVG 1.1//EN" "http://www.w3.org/Graphics/SVG/1.1/DTD/svg11.dtd">
<!-- Creator: CorelDRAW -->
<svg xmlns="http://www.w3.org/2000/svg" xml:space="preserve" width="2048px" height="2048px" style="shape-rendering:geometricPrecision; text-rendering:geometricPrecision; image-rendering:optimizeQuality; fill-rule:evenodd; clip-rule:evenodd"
viewBox="0 0 2048 2048"
 xmlns:xlink="http://www.w3.org/1999/xlink">
 <defs>
  <style type="text/css">
   <![CDATA[
    .fil2 {fill:none}
    .fil1 {fill:#D81B60}
    .fil0 {fill:#F06292}
    .fil3 {fill:#212121;fill-rule:nonzero}
    .fil5 {fill:#424242;fill-rule:nonzero}
    .fil4 {fill:#4D4D4D;fill-rule:nonzero}
    .fil6 {fill:#E88000;fill-rule:nonzero}
    .fil10 {fill:#ED9D26;fill-rule:nonzero}
    .fil9 {fill:#EF6C00;fill-rule:nonzero}
    .fil7 {fill:#FB8C00;fill-rule:nonzero}
    .fil8 {fill:#FFA726;fill-rule:nonzero}
   ]]>
  </style>
   <clipPath id="id0">
    <path d="M1024 0c565.539,0 1024,458.461 1024,1024 0,565.539 -458.461,1024 -1024,1024 -565.539,0 -1024,-458.461 -1024,-1024 0,-565.539 458.461,-1024 1024,-1024z"/>
   </clipPath>
 </defs>
 <g id="Layer_x0020_1">
  <metadata id="CorelCorpID_0Corel-Layer"/>
  <path class="fil0" d="M1024 0c565.539,0 1024,458.461 1024,1024 0,565.539 -458.461,1024 -1024,1024 -565.539,0 -1024,-458.461 -1024,-1024 0,-565.539 458.461,-1024 1024,-1024z"/>
  <g style="clip-path:url(#id0)">
   <g id="_478233856">
    <g>
     <polygon id="_3926251441" class="fil1" points="1422.94,464 2558.82,1599.88 2558.95,1600.05 1423.07,464.163 "/>
     <polygon id="_392635272" class="fil1" points="1426.31,464.163 2562.19,1600.05 2560.4,1601.99 1424.52,466.105 "/>
     <polygon id="_392626248" class="fil1" points="1424.52,466.105 2560.4,1601.99 2575.11,1621.6 1439.23,485.718 "/>
     <polygon id="_392635368" class="fil1" points="1439.23,485.718 2575.11,1621.6 2643.72,1713.14 1507.84,577.261 "/>
     <polygon id="_392625360" class="fil1" points="1507.84,577.261 2643.72,1713.14 2654.54,1727.57 1518.66,591.684 "/>
     <polygon id="_392643912" class="fil1" points="1518.66,591.684 2654.54,1727.57 2642.6,1741.04 1506.72,605.162 "/>
     <polygon id="_392623824" class="fil1" points="624.793,464.168 1760.67,1600.05 1768.88,1608.71 632.997,472.83 "/>
     <polygon id="_392637888" class="fil1" points="1146.76,1022.03 2282.64,2157.92 2268.37,2176.63 1132.49,1040.75 "/>
     <polygon id="_392620848" class="fil1" points="1157.17,1040.75 2293.05,2176.63 2293.05,2198.81 1157.17,1062.93 "/>
     <polygon id="_392621856" class="fil1" points="1157.17,1062.93 2293.05,2198.81 2293.05,2254.67 1157.17,1118.78 "/>
     <polygon id="_392628480" class="fil1" points="1202.01,1154.44 2337.89,2290.33 2342.11,2294.65 2346.22,2299.07 2350.23,2303.58 2354.13,2308.2 2357.92,2312.9 2361.6,2317.7 2365.17,2322.59 2368.62,2327.57 2371.95,2332.63 2375.16,2337.78 2378.25,2343.01 2381.22,2348.31 2384.06,2353.7 2386.78,2359.17 2389.36,2364.7 2391.82,2370.31 2394.14,2375.99 2396.32,2381.74 2398.37,2387.55 2400.28,2393.43 2402.05,2399.37 2403.67,2405.37 2405.15,2411.43 2406.48,2417.54 2407.66,2423.71 2408.69,2429.93 2409.57,2436.21 2410.29,2442.53 2410.86,2448.89 2411.26,2455.3 2411.51,2461.76 2411.59,2468.25 1275.71,1332.37 1275.63,1325.88 1275.38,1319.42 1274.98,1313.01 1274.41,1306.64 1273.69,1300.32 1272.81,1294.05 1271.78,1287.83 1270.6,1281.66 1269.27,1275.55 1267.79,1269.49 1266.16,1263.49 1264.4,1257.55 1262.49,1251.67 1260.44,1245.85 1258.26,1240.11 1255.94,1234.43 1253.48,1228.82 1250.9,1223.28 1248.18,1217.82 1245.34,1212.43 1242.37,1207.12 1239.28,1201.9 1236.07,1196.75 1232.73,1191.69 1229.28,1186.71 1225.72,1181.82 1222.04,1177.02 1218.25,1172.31 1214.35,1167.7 1210.34,1163.18 1206.22,1158.76 "/>
     <polygon id="_392628000" class="fil1" points="1275.71,1332.37 2411.59,2468.25 2411.51,2474.75 2411.26,2481.2 2410.86,2487.61 2410.29,2493.98 2409.57,2500.3 2408.69,2506.57 2407.66,2512.79 2406.48,2518.96 2405.15,2525.08 2403.67,2531.14 2402.05,2537.14 2400.28,2543.08 2398.37,2548.95 2396.32,2554.77 2394.14,2560.51 2391.82,2566.19 2389.36,2571.8 2386.78,2577.34 2384.06,2582.8 2381.22,2588.19 2378.25,2593.5 2375.16,2598.73 2371.95,2603.87 2368.62,2608.94 2365.17,2613.91 2361.6,2618.8 2357.92,2623.6 2354.13,2628.31 2350.23,2632.92 2346.22,2637.44 2342.11,2641.86 2337.89,2646.18 1202.01,1510.3 1206.22,1505.98 1210.34,1501.56 1214.35,1497.04 1218.25,1492.43 1222.04,1487.72 1225.72,1482.92 1229.28,1478.03 1232.73,1473.05 1236.07,1467.99 1239.28,1462.84 1242.37,1457.62 1245.34,1452.31 1248.18,1446.92 1250.9,1441.46 1253.48,1435.92 1255.94,1430.31 1258.26,1424.63 1260.44,1418.88 1262.49,1413.07 1264.4,1407.19 1266.16,1401.25 1267.79,1395.25 1269.27,1389.19 1270.6,1383.08 1271.78,1376.91 1272.81,1370.69 1273.69,1364.42 1274.41,1358.1 1274.98,1351.73 1275.38,1345.32 1275.63,1338.86 "/>
     <polygon id="_392639520" class="fil1" points="1202.01,1510.3 2337.89,2646.18 2333.57,2650.4 2329.15,2654.51 2324.63,2658.52 2320.02,2662.42 2315.31,2666.21 2310.51,2669.89 2305.62,2673.46 2300.65,2676.91 2295.58,2680.24 2290.44,2683.45 2285.21,2686.54 2279.9,2689.51 2274.51,2692.35 2269.05,2695.07 2263.51,2697.65 2257.9,2700.11 2252.22,2702.43 2246.48,2704.61 2240.66,2706.66 2234.78,2708.57 2228.84,2710.34 2222.84,2711.96 2216.79,2713.44 2210.67,2714.77 2204.5,2715.95 2198.28,2716.98 2192.01,2717.86 2185.69,2718.58 2179.32,2719.15 2172.91,2719.56 2166.46,2719.8 2159.96,2719.88 1024.08,1584 1030.57,1583.92 1037.03,1583.67 1043.44,1583.27 1049.81,1582.7 1056.13,1581.98 1062.4,1581.1 1068.62,1580.07 1074.79,1578.89 1080.9,1577.56 1086.96,1576.08 1092.96,1574.45 1098.9,1572.69 1104.78,1570.78 1110.59,1568.73 1116.34,1566.55 1122.02,1564.22 1127.63,1561.77 1133.17,1559.19 1138.63,1556.47 1144.02,1553.63 1149.33,1550.66 1154.55,1547.57 1159.7,1544.36 1164.76,1541.02 1169.74,1537.57 1174.63,1534.01 1179.43,1530.33 1184.14,1526.54 1188.75,1522.64 1193.27,1518.63 1197.69,1514.51 "/>
     <polygon id="_392621472" class="fil1" points="1024.08,1584 2159.96,2719.88 2153.47,2719.8 2147.01,2719.56 2140.6,2719.15 2134.24,2718.58 2127.92,2717.86 2121.64,2716.98 2115.42,2715.95 2109.25,2714.77 2103.14,2713.44 2097.08,2711.96 2091.08,2710.34 2085.14,2708.57 2079.26,2706.66 2073.45,2704.61 2067.7,2702.43 2062.02,2700.11 2056.41,2697.65 2050.87,2695.07 2045.41,2692.35 2040.02,2689.51 2034.72,2686.54 2029.49,2683.45 2024.34,2680.24 2019.28,2676.91 2014.3,2673.46 2009.41,2669.89 2004.61,2666.21 1999.91,2662.42 1995.29,2658.52 859.411,1522.64 864.024,1526.54 868.731,1530.33 873.531,1534.01 878.42,1537.57 883.397,1541.02 888.459,1544.36 893.606,1547.57 898.835,1550.66 904.143,1553.63 909.53,1556.47 914.994,1559.19 920.531,1561.77 926.14,1564.22 931.818,1566.55 937.566,1568.73 943.38,1570.78 949.257,1572.69 955.197,1574.45 961.198,1576.08 967.256,1577.56 973.372,1578.89 979.541,1580.07 985.762,1581.1 992.035,1581.98 998.355,1582.7 1004.72,1583.27 1011.13,1583.67 1017.59,1583.92 "/>
     <polygon id="_392642304" class="fil1" points="1506.72,605.162 2642.6,1741.04 2282.64,2157.92 1146.76,1022.03 "/>
    </g>
    <path id="_478235224" class="fil1" d="M625.431 464.177l797.369 -0.0141732 0.144095 -0.162992 0.121654 0.162992 3.24213 0 -1.78583 1.94173 14.7036 19.6134 68.6186 91.5426 10.8118 14.4236 -11.9386 13.4776 -359.958 416.872 -14.2736 18.7134 2.50394 0 22.1835 0 0 22.1835 0 55.8532c16.2851,10.1705 31.324,22.1516 44.8335,35.6611 45.5374,45.5374 73.7044,108.444 73.7044,177.925 0,69.4808 -28.167,132.389 -73.7044,177.927 -45.5386,45.5363 -108.447,73.7044 -177.926,73.7044 -69.4796,0 -132.388,-28.1681 -177.926,-73.7044 -45.5363,-45.5386 -73.7044,-108.447 -73.7044,-177.927 0,-69.4808 28.1681,-132.388 73.7044,-177.925 13.5071,-13.5071 28.5437,-25.487 44.8252,-35.6563l0 -55.8579 0 -22.1835 17.3327 0 -6.64725 -7.53898 -360.316 -428.046 -12.0047 -13.6146 11.0504 -14.4602 84.3981 -112.919 8.20394 8.66221 -7.56615 -8.65276z"/>
   </g>
  </g>
  <path class="fil2" d="M1024 0c565.539,0 1024,458.461 1024,1024 0,565.539 -458.461,1024 -1024,1024 -565.539,0 -1024,-458.461 -1024,-1024 0,-565.539 458.461,-1024 1024,-1024z"/>
  <polygon class="fil3" points="625.432,464.177 1426.31,464.163 1283.78,619.147 760.951,619.161 "/>
  <polygon class="fil4" points="644.313,484.778 1097.92,1004.01 1130.18,1040.75 1081.29,1040.75 918.302,1040.75 908.312,1040.75 901.665,1033.21 541.348,605.162 529.345,591.547 540.396,577.087 624.793,464.168 "/>
  <polygon class="fil5" points="1405,484.331 1422.94,464 1439.22,485.718 1507.84,577.259 1518.66,591.684 1506.72,605.162 1146.76,1022.03 1127.12,1047.79 1016.75,915.763 "/>
  <path class="fil6" d="M1112.81 1103.88l0 -18.7665 -177.462 0 0 18.7701c-15.6307,6.07441 -30.4807,13.7055 -44.3658,22.7043l0 -63.6579 0 -22.1823 22.1823 0 221.829 0 22.1823 0 0 22.1823 0 63.6532c-13.8839,-8.99764 -28.7351,-16.6288 -44.3658,-22.7032z"/>
  <path class="fil7" d="M1133.88 1222.57c-28.0961,-28.0949 -66.9166,-45.4748 -109.801,-45.4748 -42.8847,0 -81.7052,17.3799 -109.801,45.4748 -28.0949,28.0961 -45.4737,66.9154 -45.4737,109.8 0,42.8835 17.3788,81.7052 45.4737,109.801 28.0961,28.0961 66.9178,45.4737 109.801,45.4737 42.8835,0 81.7052,-17.3776 109.801,-45.4737 28.0949,-28.0961 45.4737,-66.9178 45.4737,-109.801 0,-42.8847 -17.3788,-81.704 -45.4737,-109.8z"/>
  <path class="fil6" d="M1133.88 1222.57c-28.0949,-28.0961 -66.9166,-45.4748 -109.801,-45.4748 -42.8847,0 -81.7064,17.3788 -109.801,45.4748 -28.0949,28.0961 -45.4737,66.9166 -45.4737,109.8 0,42.8835 17.3788,81.7052 45.4737,109.801 15.5717,15.5717 34.4398,27.8481 55.4646,35.7012 -18.9225,-7.09607 -35.9268,-17.7886 -50.0729,-31.1859 -26.7154,-25.3063 -43.2402,-60.2741 -43.2402,-98.8997 0,-38.6268 16.5248,-73.5922 43.2402,-98.8985 26.7166,-25.3063 63.6308,-40.9595 104.41,-40.9595 40.7788,0 77.693,15.6532 104.41,40.9595 26.7154,25.3063 43.2402,60.2717 43.2402,98.8985 0,38.6256 -16.5248,73.5934 -43.2402,98.8997 -14.1461,13.3973 -31.1492,24.091 -50.0729,31.1859 21.0248,-7.85316 39.8929,-20.1295 55.4646,-35.7012 28.0949,-28.0961 45.4737,-66.9178 45.4737,-109.801 0,-42.8835 -17.3788,-81.704 -45.4737,-109.8z"/>
  <path class="fil8" d="M1024.08 1080.74c69.4808,0 132.388,28.167 177.926,73.7056 45.5374,45.5374 73.7044,108.444 73.7044,177.925 0,69.4796 -28.167,132.388 -73.7044,177.926 -45.5386,45.5374 -108.447,73.7044 -177.926,73.7044 -69.4796,0 -132.388,-28.167 -177.926,-73.7044 -45.5374,-45.5386 -73.7044,-108.447 -73.7044,-177.926 0,-69.4808 28.167,-132.388 73.7044,-177.925 45.5386,-45.5386 108.445,-73.7056 177.926,-73.7056zm104.41 147.222c-26.7166,-26.7154 -63.6308,-43.2414 -104.41,-43.2414 -40.7788,0 -77.693,16.526 -104.41,43.2414 -26.7154,26.7166 -43.2402,63.6296 -43.2402,104.408 0,40.7776 16.5248,77.693 43.2402,104.41 26.7166,26.7154 63.6319,43.2402 104.41,43.2402 40.7776,0 77.693,-16.5248 104.41,-43.2402 26.7154,-26.7166 43.2402,-63.6319 43.2402,-104.41 0,-40.7788 -16.5248,-77.6918 -43.2402,-104.408z"/>
  <polygon class="fil9" points="1041.51,1279.56 1047.64,1298.56 1067.65,1298.52 1124.34,1298.41 1078.4,1331.65 1062.22,1343.36 1068.43,1362.36 1086.04,1416.2 1040.25,1382.8 1024.08,1371 1007.91,1382.8 962.121,1416.2 979.729,1362.36 985.942,1343.36 969.76,1331.65 923.825,1298.41 980.515,1298.52 1000.52,1298.56 1006.66,1279.56 1024.08,1225.57 "/>
  <path class="fil10" d="M1024.08 1122.55c57.939,0 110.397,23.4874 148.367,61.4575 37.9701,37.9701 61.4563,90.4264 61.4563,148.365 0,57.9402 -23.4862,110.397 -61.4563,148.368 -37.9701,37.9701 -90.4276,61.4552 -148.367,61.4552 -57.939,0 -110.397,-23.4851 -148.367,-61.4552 -37.9701,-37.9713 -61.4563,-90.4276 -61.4563,-148.368 0,-57.939 23.4862,-110.395 61.4563,-148.365 37.9701,-37.9701 90.4276,-61.4575 148.367,-61.4575zm138.565 71.2595c-35.4603,-35.4603 -84.4512,-57.3945 -138.565,-57.3945 -54.1134,0 -103.104,21.9343 -138.565,57.3945 -35.4603,35.4603 -57.3934,84.4501 -57.3934,138.563 0,54.1134 21.9331,103.106 57.3934,138.565 35.4603,35.4603 84.4512,57.3945 138.565,57.3945 54.1134,0 103.104,-21.9343 138.565,-57.3945 35.4603,-35.4591 57.3934,-84.4512 57.3934,-138.565 0,-54.1134 -21.9331,-103.103 -57.3934,-138.563z"/>
 </g>
</svg>
