<?xml version="1.0" encoding="iso-8859-1"?>
<!-- Generator: Adobe Illustrator 19.0.0, SVG Export Plug-In . SVG Version: 6.00 Build 0)  -->
<svg xmlns="http://www.w3.org/2000/svg" xmlns:xlink="http://www.w3.org/1999/xlink" version="1.1" id="Layer_1" x="0px" y="0px" viewBox="0 0 512 512" style="enable-background:new 0 0 512 512;" xml:space="preserve">
<path style="fill:#04C051;" d="M407.862,418.268H21.019c-7.144,0-12.935-5.792-12.935-12.935V106.666  c0-7.143,5.79-12.935,12.935-12.935h469.962c7.144,0,12.935,5.792,12.935,12.935v298.667c0,7.143-5.79,12.935-12.935,12.935H434.81"/>
<path style="fill:#08AF4B;" d="M33.666,405.334V106.666c0-7.143,5.79-12.935,12.935-12.935H21.019  c-7.144,0-12.935,5.792-12.935,12.935v298.667c0,7.143,5.79,12.935,12.935,12.935h25.582  C39.456,418.268,33.666,412.477,33.666,405.334z"/>
<path style="fill:#69DD0C;" d="M84.855,161.145H8.084v189.709h76.771c7.144,0,12.935-5.792,12.935-12.935V174.08  C97.79,166.937,91.999,161.145,84.855,161.145z"/>
<rect x="8.084" y="161.145" style="fill:#65C610;" width="25.582" height="189.709"/>
<g>
	<path style="fill:#69DD0C;" d="M427.145,161.145h76.771v189.709h-76.771c-7.144,0-12.935-5.792-12.935-12.935V174.08   C414.21,166.937,420.002,161.145,427.145,161.145z"/>
	<circle style="fill:#69DD0C;" cx="256" cy="256" r="59.284"/>
	<path style="fill:#69DD0C;" d="M157.074,256c0-32.741-26.542-59.284-59.284-59.284v118.568   C130.532,315.284,157.074,288.741,157.074,256z"/>
	<path style="fill:#69DD0C;" d="M40.576,215.854H8.084v80.292h32.492c3.023,0,5.475-2.451,5.475-5.476v-69.342   C46.051,218.305,43.599,215.854,40.576,215.854z"/>
	<path style="fill:#69DD0C;" d="M354.926,256c0-32.741,26.542-59.284,59.284-59.284v118.568   C381.468,315.284,354.926,288.741,354.926,256z"/>
	<path style="fill:#69DD0C;" d="M471.425,215.854h32.491v80.292h-32.492c-3.023,0-5.475-2.451-5.475-5.476v-69.342   C465.949,218.305,468.401,215.854,471.425,215.854z"/>
</g>
<path style="fill:#231F20;" d="M490.981,85.647H256H21.019C9.429,85.647,0,95.077,0,106.666v54.479v54.709v80.292v54.709v54.479  c0,11.59,9.429,21.019,21.019,21.019h386.843c4.465,0,8.084-3.618,8.084-8.084s-3.62-8.084-8.084-8.084H264.084v-87.318  c33.347-4.009,59.284-32.456,59.284-66.866s-25.937-62.857-59.284-66.866v-87.318h226.897c2.675,0,4.851,2.176,4.851,4.851v46.395  h-68.687c-11.59,0-21.019,9.429-21.019,21.019v15.054c-33.347,4.009-59.284,32.456-59.284,66.866s25.937,62.857,59.284,66.866  v15.054c0,11.59,9.429,21.019,21.019,21.019h68.687v46.395c0,2.674-2.175,4.851-4.851,4.851h-36.769H434.81  c-4.465,0-8.084,3.618-8.084,8.084s3.62,8.084,8.084,8.084h19.402h36.769c11.59,0,21.019-9.429,21.019-21.019v-54.479v-54.709  v-80.292v-54.709v-54.479C512,95.077,502.571,85.647,490.981,85.647z M105.874,205.438c24.405,3.886,43.116,25.08,43.116,50.562  s-18.711,46.676-43.116,50.562C105.874,306.562,105.874,205.438,105.874,205.438z M89.706,196.716v118.568v22.636  c0,2.674-2.176,4.851-4.851,4.851H16.168v-38.54h24.408c7.476,0,13.559-6.084,13.559-13.56v-69.342  c0-7.477-6.083-13.559-13.559-13.559H16.168v-38.54h68.687c2.674,0,4.851,2.176,4.851,4.851V196.716z M16.168,223.938h21.798v64.124  H16.168V223.938z M247.916,306.555C223.512,302.667,204.8,281.48,204.8,256s18.712-46.667,43.116-50.555V306.555z M307.2,256  c0,25.48-18.712,46.667-43.116,50.555V205.444C288.488,209.333,307.2,230.52,307.2,256z M247.916,189.134  c-33.347,4.009-59.284,32.456-59.284,66.866s25.937,62.857,59.284,66.866v87.318H21.019c-2.674,0-4.851-2.176-4.851-4.851v-46.395  h68.687c11.59,0,21.019-9.429,21.019-21.019v-15.054c33.347-4.009,59.284-32.456,59.284-66.866s-25.937-62.857-59.284-66.866V174.08  c0-11.59-9.429-21.019-21.019-21.019H16.168v-46.395c0-2.674,2.176-4.851,4.851-4.851h226.897V189.134z M495.832,288.062h-21.798  v-64.124h21.798V288.062z M363.01,256c0-25.483,18.711-46.676,43.116-50.562v101.124C381.722,302.676,363.01,281.482,363.01,256z   M427.145,342.771c-2.675,0-4.851-2.176-4.851-4.851v-22.636V196.716V174.08c0-2.674,2.175-4.851,4.851-4.851h68.687v38.54h-24.407  c-7.477,0-13.559,6.083-13.559,13.559v69.342c0,7.477,6.083,13.56,13.559,13.56h24.407v38.54H427.145z"/>
<g>
</g>
<g>
</g>
<g>
</g>
<g>
</g>
<g>
</g>
<g>
</g>
<g>
</g>
<g>
</g>
<g>
</g>
<g>
</g>
<g>
</g>
<g>
</g>
<g>
</g>
<g>
</g>
<g>
</g>
</svg>
